PathFileType	4	(X/Y/Z)	Walk2.trc
DataRate	CameraRate	NumFrames	NumMarkers	Units	OrigDataRate	OrigDataStartFrame	OrigNumFrames
200.000000	200.000000	5	61	mm	200.000000	821	1012
Frame#	Times		RCAR		LToe		LTB4		LTB1		RWRR		LMT1		RACR1		LFA1		LUA1		RFA1		LElbow		RFHD		LCAR		LASI		LWRU		LWRR		RLFC		STRN		LACR1		RTH3		RWRU		RToe		C7		RPSI		RMT1		RMT5		LPSI		RMFC		LFHD		RTB3		LTH3		LMFC		RTB2		RTB1		RCAL		LTH4		CLAV		RTB4		RTH2		RMMAL		LMT5		LTH1		RASI		LTH2		RLMAL		LBHD		LTB2		RBHD		LLFC		RUA1		RElbow		LTB3		RTH4		LMMAL		RTH1		LCAL		RBack		T10		LElbowM		LLMAL		RElbowM
			X1	Y1	Z1	X2	Y2	Z2	X3	Y3	Z3	X4	Y4	Z4	X5	Y5	Z5	X6	Y6	Z6	X7	Y7	Z7	X8	Y8	Z8	X9	Y9	Z9	X10	Y10	Z10	X11	Y11	Z11	X12	Y12	Z12	X13	Y13	Z13	X14	Y14	Z14	X15	Y15	Z15	X16	Y16	Z16	X17	Y17	Z17	X18	Y18	Z18	X19	Y19	Z19	X20	Y20	Z20	X21	Y21	Z21	X22	Y22	Z22	X23	Y23	Z23	X24	Y24	Z24	X25	Y25	Z25	X26	Y26	Z26	X27	Y27	Z27	X28	Y28	Z28	X29	Y29	Z29	X30	Y30	Z30	X31	Y31	Z31	X32	Y32	Z32	X33	Y33	Z33	X34	Y34	Z34	X35	Y35	Z35	X36	Y36	Z36	X37	Y37	Z37	X38	Y38	Z38	X39	Y39	Z39	X40	Y40	Z40	X41	Y41	Z41	X42	Y42	Z42	X43	Y43	Z43	X44	Y44	Z44	X45	Y45	Z45	X46	Y46	Z46	X47	Y47	Z47	X48	Y48	Z48	X49	Y49	Z49	X50	Y50	Z50	X51	Y51	Z51	X52	Y52	Z52	X53	Y53	Z53	X54	Y54	Z54	X55	Y55	Z55	X56	Y56	Z56	X57	Y57	Z57	X58	Y58	Z58	X59	Y59	Z59	X60	Y60	Z60	X61	Y61	Z61

821	4.105	447.39	857.57	410.58	280.49	54.152	-25.268	337.49	336.12	-4.1924	403.44	388.76	-12.972	449.65	901	348.91	243.67	93.084	-4.2655	365.12	1504	248.68	375.61	1063.8	-265.55	329.19	1361.4	-207.05	396.53	1038.1	380.19	290.39	1193	-253.82	502.37	1705.4	143.12	421.68	900.08	-280.17	414.43	1038.5	-111.29	348.89	934.79	-280.11	424.96	938.61	-224	371.66	513.6	225.85	485.37	1308.8	45.994	344.1	1544.6	-123.13	349.01	651.34	238.51	385.34	893.4	410.15	557.35	42.528	115.43	251.52	1565.9	76.09	197.41	1075.7	100.21	507.5	52.727	101.53	463.88	32.401	194	195.42	1074.9	-9.4178	352.33	508.76	77.674	507.3	1716.1	38.471	400.37	199.61	116.55	435.95	645.6	-140.26	482.58	513.05	21.2	414.89	278.96	185.67	416.93	370.82	133.23	287.44	40.059	112.71	409.69	727.91	-151.79	418.32	1480.2	47.167	409.21	284.89	124.31	391.29	744.56	255.57	375.57	105.65	65.735	195.04	110.85	-81.931	382.84	810.59	-162.05	417	1059.5	209.01	463.82	747.59	-149.35	346.22	72.172	158.62	341.73	1707.1	9.8011	341.37	321.07	-66.107	331.34	1695.9	151.16	441.46	522.8	-113.57	349.16	1324	321.98	308.65	1165.4	368.29	274	278.94	0.54781	332.71	732.84	247.5	191.67	223.06	48.23	318.29	819.5	258.81	87.48	247.53	4.4544	198.92	1439.6	190.26	212.34	1209	44.466	261.72	1164.8	-167.8	145.68	223.76	-46.397	279.07	1137.5	280.21
822	4.11	455.58	858.76	410.82	298.96	53.887	-24.108	349.85	336.12	-3.6054	414.71	389.9	-12.288	457.37	902.14	349.12	261.08	91.962	-3.317	370.27	1504.5	248.67	379.64	1064.2	-265.56	333.45	1361.6	-206.88	403.81	1039.1	380.5	294.33	1193.3	-253.52	507.59	1705.6	142.98	426.05	900.85	-280.47	419.22	1039.1	-110.78	353.01	935.03	-279.61	429.56	939.21	-224.22	373.08	513.57	226.05	490.01	1309.1	46.137	348.8	1544.9	-123.07	351.26	651.51	238.69	393.37	894.32	410.64	557.35	42.453	115.41	256.47	1566.4	76.235	201.87	1076.1	100.4	507.46	52.616	101.59	463.84	32.446	193.99	199.98	1075.4	-9.3056	353.82	508.9	77.743	512.52	1716.2	38.299	400.78	199.54	116.62	444.05	647.29	-139.95	491.58	515.39	21.713	415.53	278.79	185.76	417.88	370.64	133.36	287.42	40.051	112.67	416.9	729.32	-151.59	423.16	1480.6	47.178	409.9	284.75	124.38	394.09	744.46	255.75	375.59	105.65	65.679	212.33	108.46	-81.218	389.23	811.73	-161.87	421.33	1059.8	209.55	470.81	749.58	-149.29	346.25	72.211	158.57	346.92	1707.5	9.6725	354.04	320.92	-65.38	336.54	1696.4	151.05	451.02	524.31	-113.18	355.22	1324.6	322.14	315.38	1166	368.9	287.61	277.52	0.63947	335.48	733.06	247.68	205.74	220.61	48.782	321.59	819.78	259	101.04	242.51	4.602	203.93	1440.1	190.6	216.93	1209.5	44.834	266.01	1165.1	-167.36	160.08	220.01	-46.039	285.47	1137.9	281
823	4.115	463.77	859.94	411.05	317.55	53.571	-23.142	362.2	336.01	-3.0446	425.92	390.95	-11.631	465.1	903.27	349.32	278.65	90.735	-2.5139	375.4	1505.1	248.65	383.69	1064.5	-265.58	337.72	1361.9	-206.71	411.09	1040	380.79	298.3	1193.6	-253.23	512.79	1705.8	142.81	430.41	901.59	-280.78	424.04	1039.6	-110.26	357.15	935.24	-279.12	434.18	939.79	-224.47	374.51	513.53	226.24	494.65	1309.3	46.285	353.49	1545.1	-123.01	353.49	651.67	238.86	401.39	895.24	411.12	557.34	42.372	115.41	261.4	1566.8	76.367	206.33	1076.4	100.56	507.43	52.512	101.64	463.8	32.49	193.97	204.54	1075.8	-9.2132	355.35	509.02	77.815	517.72	1716.3	38.107	401.19	199.47	116.7	452.08	649	-139.65	500.37	517.72	22.226	416.17	278.61	185.86	418.85	370.45	133.51	287.42	40.046	112.63	424.08	730.73	-151.41	427.99	1480.9	47.187	410.6	284.6	124.46	396.87	744.35	255.93	375.63	105.64	65.631	229.76	105.98	-80.604	395.63	812.87	-161.69	425.7	1060.1	210.06	477.78	751.55	-149.21	346.27	72.248	158.52	352.09	1707.9	9.5302	366.73	320.68	-64.686	341.72	1696.9	150.92	460.44	525.78	-112.79	361.25	1325.2	322.28	322.09	1166.5	369.49	301.29	275.93	0.67978	338.22	733.25	247.83	219.97	217.96	49.287	324.87	820.03	259.17	114.8	237.25	4.7672	208.93	1440.6	190.92	221.52	1209.9	45.181	270.3	1165.4	-166.94	174.63	216.09	-45.706	291.87	1138.2	281.77
824	4.12	471.97	861.13	411.25	336.27	53.213	-22.377	374.56	335.8	-2.5168	437.06	391.92	-11.01	472.83	904.4	349.51	296.36	89.417	-1.8655	380.52	1505.6	248.62	387.76	1064.9	-265.59	342.02	1362.1	-206.54	418.36	1040.9	381.07	302.28	1193.8	-252.94	517.97	1705.9	142.63	434.78	902.29	-281.09	428.88	1040.2	-109.73	361.32	935.43	-278.63	438.82	940.35	-224.72	375.94	513.48	226.44	499.3	1309.5	46.439	358.18	1545.4	-122.96	355.71	651.82	239.03	409.42	896.14	411.56	557.33	42.285	115.42	266.33	1567.3	76.489	210.8	1076.8	100.68	507.4	52.417	101.69	463.75	32.531	193.97	209.12	1076.3	-9.141	356.93	509.12	77.893	522.9	1716.3	37.897	401.62	199.39	116.79	460.06	650.7	-139.37	508.97	520.02	22.734	416.81	278.41	185.98	419.84	370.26	133.66	287.42	40.044	112.6	431.23	732.13	-151.26	432.82	1481.2	47.194	411.31	284.43	124.56	399.63	744.22	256.12	375.67	105.64	65.59	247.31	103.43	-80.099	402.04	814	-161.52	430.1	1060.4	210.55	484.74	753.5	-149.11	346.29	72.283	158.47	357.24	1708.2	9.3753	379.42	320.37	-64.034	346.89	1697.4	150.78	469.73	527.22	-112.39	367.24	1325.8	322.43	328.78	1167	370.05	315.02	274.18	0.68939	340.94	733.44	247.97	234.35	215.11	49.735	328.11	820.27	259.31	128.77	231.75	4.9381	213.92	1441	191.22	226.11	1210.4	45.505	274.59	1165.7	-166.53	189.33	212	-45.407	298.26	1138.5	282.51
825	4.125	480.18	862.31	411.43	355.09	52.826	-21.815	386.91	335.48	-2.0289	448.13	392.81	-10.434	480.58	905.54	349.68	314.2	88.02	-1.377	385.61	1506.1	248.59	391.86	1065.2	-265.6	346.33	1362.3	-206.38	425.62	1041.8	381.33	306.28	1194.1	-252.67	523.14	1706.1	142.42	439.16	902.96	-281.41	433.75	1040.7	-109.2	365.52	935.61	-278.15	443.47	940.89	-224.99	377.37	513.42	226.64	503.96	1309.7	46.602	362.87	1545.6	-122.92	357.92	651.95	239.2	417.46	897.03	411.98	557.33	42.192	115.44	271.25	1567.7	76.601	215.27	1077.1	100.77	507.38	52.331	101.74	463.71	32.571	193.97	213.71	1076.7	-9.089	358.56	509.21	77.981	528.07	1716.4	37.671	402.05	199.31	116.88	467.98	652.39	-139.1	517.36	522.27	23.234	417.46	278.21	186.1	420.83	370.05	133.83	287.42	40.044	112.58	438.35	733.53	-151.13	437.65	1481.4	47.197	412.02	284.25	124.68	402.38	744.08	256.32	375.71	105.62	65.556	264.97	100.83	-79.712	408.46	815.13	-161.37	434.54	1060.7	211	491.67	755.43	-148.97	346.31	72.316	158.43	362.37	1708.5	9.2093	392.12	320	-63.433	352.04	1697.9	150.63	478.87	528.61	-111.99	373.21	1326.3	322.59	335.45	1167.5	370.6	328.77	272.29	0.69352	343.65	733.61	248.09	248.88	212.07	50.113	331.32	820.5	259.43	142.95	226.05	5.0997	218.89	1441.4	191.5	230.69	1210.8	45.806	278.87	1166	-166.14	204.17	207.76	-45.154	304.65	1138.9	283.23
